<?xml version="1.0" encoding="UTF-8" standalone="no"?>
<!-- Created with Inkscape (http://www.inkscape.org/) -->

<svg
   version="1.1"
   id="svg1"
   viewBox="0 0 1600 1588"
   xml:space="preserve"
   xmlns="http://www.w3.org/2000/svg"
   xmlns:svg="http://www.w3.org/2000/svg"><defs
     id="defs1" /><g
     id="g7878"
     transform="matrix(-1.214335,0,0,1.214335,1801.6973,-138.75311)"
     style="display:inline"><path
       id="path7880"
       style="display:inline;fill:#eb7072"
       d="m 604.75,1187.416 c -16.7847,5.4573 -31.17815,16.5415 -45.43527,26.6869 -11.92061,11.534 -23.60786,23.6099 -32.09206,37.9905 -8.28047,10.8739 -11.9283,24.262 -17.25261,36.6439 -2.74429,10.8986 -4.93121,22.2054 -2.77584,33.4277 1.47076,12.2208 5.8252,24.3463 13.54888,34.0452 16.59039,24.211 47.13208,39.4939 76.5149,33.5914 10.58345,-1.4072 20.77984,-5.6161 29.35466,-11.9305 10.99203,-9.116 19.12943,-20.8888 25.66853,-33.4875 13.56805,-26.1946 28.48662,-52.217 49.74119,-73.0401 -36.16735,-34.6058 -49.49832,-60.3944 -94.83093,-83.9196 h -1.22081 l -1.2206,-0.013 z" /><path
       id="path7892"
       style="display:inline;fill:#ffffff;fill-opacity:1;stroke-width:1.58365"
       d="m 1338.3223,233.00586 c -11.9016,9.5084 -23.692,19.15824 -35.1672,29.1788 -8.5692,7.23054 -17.1491,14.47583 -25.0503,22.4444 -11.0019,10.69204 -21.4524,21.95318 -31.248,33.76148 -4.4717,5.33286 -9.0647,10.56611 -13.4532,15.9675 -9.1648,11.64507 -17.9799,23.56041 -26.7578,35.49802 -6.3347,8.71456 -12.2291,17.73655 -17.9964,26.83285 -6.6971,10.50038 -13.2524,21.11399 -18.9273,32.20962 -5.1486,9.92348 -10.0395,19.9783 -14.8982,30.04604 -6.8014,14.22867 -13.4706,28.5268 -19.6244,43.04935 -1.2557,3.08817 -2.5429,6.19387 -3.3245,9.43967 -0.3873,2.50584 1.1436,5.3179 3.7096,5.8937 2.1029,0.60834 4.0603,-0.64927 5.9582,-1.35278 24.7804,-10.43324 49.1709,-21.95033 75.0154,-29.58234 3.0671,-0.9041 6.1224,-1.71248 9.1918,-2.41675 5.4771,-1.29537 11.0582,-2.06969 16.653,-2.63584 1.5983,-0.17978 3.1964,-0.36098 4.7943,-0.54466 -8.8536,9.20656 -17.6998,18.47508 -25.3765,28.70773 -2.798,3.71106 -5.8678,7.21101 -8.609,10.96411 -5.328,7.41319 -9.3655,15.63708 -13.6715,23.6459 -1.6428,3.20478 -3.371,6.42275 -4.3418,9.90427 -0.4911,2.73165 1.6401,5.815 4.5281,5.80729 2.8699,0.0123 5.5215,-1.24581 8.2459,-1.97736 7.7718,-2.43525 15.3802,-5.54004 23.427,-6.9832 2.5941,-0.28165 5.2568,-0.56793 7.6226,-1.74559 2.8075,-0.75159 5.7415,-0.73827 8.6136,-1.0642 0.8246,-0.0605 1.649,-0.12462 2.4737,-0.18278 -5.5372,10.44996 -11.5182,20.79279 -16.085,31.75731 -2.1069,5.13796 -3.5093,10.56467 -4.0407,16.0962 -0.5155,5.38965 -0.7487,10.92138 0.6179,16.21179 1.5384,6.24481 5.187,11.67894 8.8908,16.83473 5.4575,7.52826 11.0846,14.98376 17.5976,21.64159 0.7581,0.738 1.5637,1.42855 2.412,2.05995 0.4841,2.41139 1.9386,4.63435 4.0366,5.93677 4.3782,4.19437 8.3196,8.8555 12.355,13.43934 1.2372,1.41872 2.4958,2.81823 3.7548,4.21764 1.5432,0.63591 3.5528,0.41986 4.5957,-0.99414 0.9907,-1.63529 1.7016,-3.42978 2.5975,-5.12041 16.1862,-32.98097 33.112,-65.73212 45.6713,-100.32519 4.6926,-12.82521 8.7019,-25.89294 12.1517,-39.10494 5.845,-22.22844 10.3419,-44.78212 14.5042,-67.37779 3.0996,-17.58352 4.7368,-35.40322 5.3184,-53.24196 0.6889,-19.28208 0.4534,-38.5818 0.1509,-57.8691 -0.3309,-14.06415 -1.4293,-28.14114 -4.0424,-41.97819 -3.1717,-17.48446 -7.2936,-34.78302 -11.835,-51.95877 -2.4362,-8.98207 -5.3951,-17.81329 -8.6455,-26.53147 -0.5976,0.48047 -1.1953,0.96094 -1.7929,1.44141 z m -1030.40042,3.04492 c -2.94327,-0.0491 -5.28423,2.46993 -6.00886,5.15779 -2.01563,6.19931 -3.86916,12.45021 -5.51807,18.7576 -4.31686,16.42308 -8.51627,32.92671 -10.88783,49.76334 -4.1278,28.22299 -4.91844,56.80517 -4.87324,85.29001 0.0504,7.33108 0.0843,14.66648 0.40532,21.99122 0.54228,11.36432 1.99553,22.65989 3.684,33.904 4.45807,30.42458 10.68251,60.64521 19.78642,90.0376 11.21492,36.35857 26.48455,71.33119 43.34149,105.39611 4.82802,9.78383 9.72059,19.53875 14.67326,29.2573 1.202,1.92029 4.32616,1.89689 5.57315,0.035 5.42249,-6.8361 11.1155,-13.48969 15.92613,-20.78387 0.91101,-1.56458 1.4641,-3.41054 2.94083,-4.56936 2.38791,-2.28989 4.85853,-4.50544 6.98565,-7.04957 3.87394,-4.50994 7.35276,-9.34385 11.30282,-13.78977 3.66364,-4.47788 6.15833,-9.75755 8.57517,-14.97547 2.48146,-4.99878 3.70948,-10.65757 3.19218,-16.23452 -0.54078,-9.5185 -4.06974,-18.53271 -7.9655,-27.12458 -3.64712,-7.93976 -8.02201,-15.51502 -12.48058,-23.01981 3.96724,0.27687 7.8541,0.62676 11.78125,1.10156 2.27966,0.30554 4.76439,0.55433 7.05309,1.20821 8.93687,2.35 17.44585,6.06826 26.37855,8.42851 2.15719,0.43429 4.44514,1.38599 6.61956,0.50773 1.98837,-0.66375 3.34285,-2.66764 3.31071,-4.75084 0.021,-2.55169 -1.37921,-4.80287 -2.41496,-7.04724 -3.69827,-7.32825 -8.06211,-14.29355 -12.43632,-21.23082 -4.89856,-7.64805 -10.39609,-14.92034 -16.55504,-21.60047 -7.25165,-8.18491 -14.81622,-16.0849 -22.41067,-23.95062 5.24664,0.58988 10.48846,1.08434 15.72211,1.71798 2.67007,0.4936 5.35923,0.30283 7.96516,1.16083 4.65619,1.17034 9.37725,2.73009 14.02272,4.21079 12.11215,3.99025 23.89134,8.90136 35.87497,13.24544 2.42333,0.86032 4.89849,1.56603 7.39293,2.17812 1.16914,0.41633 1.78384,1.61023 2.83987,2.22061 3.19158,2.34916 7.18329,2.99544 10.90713,4.04822 1.44207,0.38675 2.39178,1.62914 3.6716,2.32543 3.1627,1.91739 6.5709,3.41822 10.04831,4.66317 1.84802,0.64227 3.97582,0.98048 5.77884,0.0136 1.79128,-0.81689 2.98867,-2.84563 2.56942,-4.81299 -0.36688,-2.58974 -1.69152,-4.90249 -2.60047,-7.32362 -5.94282,-14.45558 -12.13512,-28.81207 -18.7062,-42.99387 -9.29355,-19.85756 -19.78233,-39.14983 -31.3086,-57.79849 -12.83778,-20.91317 -26.986,-41.01605 -42.28637,-60.19936 -15.50765,-19.55467 -31.82108,-38.4891 -49.19415,-56.41371 -7.6525,-7.84276 -15.64086,-15.36893 -24.13786,-22.29449 -8.04388,-6.67604 -16.03872,-13.41198 -24.16397,-19.98908 -3.08703,-2.45754 -6.15284,-4.96552 -9.47161,-7.10705 -1.48275,-0.88734 -3.14996,-1.56377 -4.90234,-1.56055 z m 816.66992,545.6543 c -11.2489,0.28842 -22.2485,2.86841 -33.2972,4.73719 -1.69,0.29477 -3.1423,1.473 -3.7829,3.06359 -0.8544,1.9141 -0.5524,4.07695 -0.1133,6.05469 -5.2146,2.17434 -10.8194,3.97263 -15.0124,7.93559 -2.4303,2.29388 -4.2212,5.66425 -3.5794,9.08198 0.5241,2.61333 2.2715,4.75506 3.9113,6.77087 1.629,2.00997 3.723,3.7236 6.2529,4.42564 3.5219,1.06559 7.2506,0.84818 10.8851,0.93561 1.7964,0.004 3.6061,-0.0554 5.3941,0.003 0.4266,0.44765 -0.1295,1.06103 -0.1045,1.58274 -1.2927,5.97428 -3.096,11.65851 -4.7314,17.54785 -0.5592,2.26731 -1.4132,4.49607 -1.545,6.84402 -0.132,2.02057 1.1055,4.03817 3.0235,4.73633 1.9723,0.81982 4.0937,-0.0288 5.9285,-0.8138 4.7659,-2.17677 9.5047,-4.47419 13.8131,-7.48103 7.68,-5.26496 14.2574,-12.03709 19.7652,-19.51835 6.0357,-8.33475 10.9021,-17.69075 13.1208,-27.79303 0.6412,-3.09236 1.155,-6.27881 0.8429,-9.43984 -0.5303,-3.26279 -3.1415,-5.87253 -6.1935,-6.94571 -4.4656,-1.82496 -9.3869,-1.71193 -14.1241,-1.7355 -0.1513,0.003 -0.3025,0.006 -0.4537,0.009 z m -601.45508,0.0801 c -5.94671,0.273 -11.93758,0.59264 -17.75767,1.92204 -2.00352,0.50482 -3.68366,2.03876 -4.3176,4.01149 -0.95355,2.80133 -0.34835,5.82734 0.2738,8.63225 1.76285,7.63536 4.69321,14.94355 7.88241,22.08115 2.85195,6.1352 6.92011,11.63613 11.4355,16.64499 4.16299,4.51357 8.65606,8.76442 13.65908,12.34042 4.50968,3.20101 9.4263,5.80732 14.5241,7.93455 1.99625,0.73238 4.45931,1.15782 6.29443,-0.19507 2.21062,-1.486 3.07285,-4.62468 1.87813,-7.01778 -0.90233,-2.45296 -2.39177,-4.70224 -2.78845,-7.32586 -0.99526,-3.86261 -1.49999,-7.87262 -1.88521,-11.76766 -0.14146,-1.44486 -0.27034,-2.89087 -0.40165,-4.3367 6.19713,0.0371 12.62716,0.0322 18.43372,-2.42328 3.29831,-1.43605 6.20996,-4.34763 6.67566,-8.03961 0.75327,-5.01898 -1.92452,-10.08313 -5.91304,-13.03062 -3.79331,-3.00479 -8.76553,-4.10627 -12.37212,-7.37563 -0.64026,-0.69131 -0.98023,-1.27816 -1.51019,-2.027 -1.74627,-2.5565 -4.47598,-4.25725 -7.24322,-5.53001 -4.66333,-1.99461 -9.65102,-3.1655 -14.66809,-3.83617 -4.04263,-0.53117 -8.12463,-0.70282 -12.19959,-0.6615 z m 496.97848,37.72851 c -5.2239,5.97965 -10.7362,11.71653 -15.677,17.93885 -4.0267,5.07376 -7.59568,10.56682 -10.02908,16.59195 -1.62552,3.95462 -3.27127,7.90106 -4.9306,11.84225 9.98172,-0.0318 19.96728,-0.008 29.94138,0.42578 6.17,0.27631 12.4629,0.7781 18.6801,1.14575 5.828,0.37398 11.6844,0.76774 17.525,1.15308 -4.6729,-4.35097 -9.4981,-8.53609 -14.1343,-12.92608 -2.3753,-2.27106 -4.6713,-4.58896 -6.6041,-7.29407 -4.0718,-5.55103 -6.8171,-11.95749 -8.7581,-18.53256 -1.3709,-4.15925 -2.7414,-8.31869 -4.1129,-12.47776 -0.6334,0.71094 -1.2669,1.42187 -1.9004,2.13281 z m -394.68356,5 c -2.89956,-0.0821 -5.28658,2.44502 -5.74368,5.18642 -0.12529,1.25914 -0.29127,2.51806 -0.74655,3.71202 -1.10779,3.05173 -2.7818,5.85327 -4.23438,8.74609 -2.93611,5.37703 -6.61017,10.37052 -11.06338,14.59093 -3.61244,3.71634 -7.22626,7.43133 -10.83701,11.14931 17.33767,-0.66211 34.68775,-1.05521 52.0079,-2.10454 2.68535,-0.23242 5.52409,-0.38224 7.92765,-1.71187 2.24007,-1.59353 2.6468,-4.8869 1.35869,-7.20888 -1.73514,-4.35859 -4.57213,-8.14253 -7.13848,-12.03038 -4.87995,-6.94077 -10.37303,-13.57529 -17.10004,-18.80447 -1.30606,-0.87974 -2.83857,-1.50819 -4.43072,-1.52463 z M 377.08398,924.91211 c -5.02192,0.41106 -9.85757,1.94148 -14.8087,2.78987 -2.17192,0.43423 -4.34369,0.86921 -6.51551,1.30388 4.95899,2.5874 10.09526,5.1461 14.96289,7.66797 2.43411,1.34081 4.95742,2.55886 7.21914,4.18301 2.44575,1.82328 4.44897,4.19587 6.99961,5.87754 1.53413,0.88498 3.35252,1.28005 4.653,2.54513 5.90666,4.60836 11.38093,9.73744 16.83332,14.86502 -0.75769,0.23298 -1.59531,0.0275 -2.38447,0.12148 -19.05131,0.40087 -38.12476,0.0374 -57.15763,1.1048 -8.24698,0.54782 -16.44968,1.60351 -24.65413,2.57794 -8.18307,1.04204 -16.29306,2.59571 -24.31252,4.52082 -14.94848,3.51199 -29.68818,7.8866 -44.20378,12.88638 -12.96594,4.52924 -25.74123,9.59211 -38.39885,14.91815 -1.47948,0.7083 -3.08642,1.2693 -4.36905,2.3068 -2.4214,2.2589 -2.20299,6.7827 0.67575,8.5675 3.00672,1.8467 6.64811,1.7832 10.03974,2.1524 10.21376,0.8223 20.46211,1.0739 30.68757,1.7141 16.57544,0.8875 33.11685,2.046 49.63431,3.9289 1.12644,0.1331 2.33524,0.2737 3.49385,0.4097 -9.77156,10.8337 -20.1983,20.9845 -30.47889,31.3425 -8.36392,8.3976 -16.74584,16.7777 -25.11682,25.1692 13.91172,2.3818 27.87926,4.4473 41.74226,7.1054 15.9748,3.5096 32.00332,7.0344 47.94524,10.5314 10.20973,2.2807 20.27779,4.7613 30.35761,7.5657 10.01046,2.8008 20.03387,5.8603 29.95104,9.1337 13.79447,4.5595 27.61197,9.6136 41.08984,15.0308 17.42863,6.9701 34.50028,14.6772 51.44884,22.737 6.48225,3.1203 12.97965,6.2159 19.36917,9.5226 4.93426,2.6049 9.55416,5.7545 14.48533,8.3649 7.95053,4.3456 16.04522,8.4405 23.78272,13.164 2.29176,1.2697 4.48931,3.0222 7.19896,3.2206 2.08666,0.246 4.17759,-0.4797 5.81068,-1.7672 2.18783,-1.5604 4.37945,-3.1247 6.76558,-4.3725 6.95544,-3.9074 14.23059,-7.2293 21.10903,-11.2708 1.96475,-1.3812 2.31398,-4.1918 1.43191,-6.3018 -0.88214,-2.0435 -1.93938,-4.0137 -2.93304,-6.0075 -4.13156,-7.9327 -8.69891,-15.6266 -13.18072,-23.3638 -9.98897,-16.9771 -20.76258,-33.6789 -34.3316,-48.0505 -9.59607,-10.1954 -20.41671,-19.1336 -31.39904,-27.7812 -0.76883,-0.5409 0.47665,-0.054 0.81444,-0.017 13.4501,3.8848 26.70981,8.9158 38.57053,16.4539 9.88519,6.2535 18.48968,14.3006 26.39692,22.869 4.92826,5.241 10.11516,10.3147 16.12364,14.3189 1.99443,1.4098 3.98807,2.8207 5.98387,4.2285 3.44332,-11.2202 6.83795,-22.459 10.65234,-33.5606 2.69187,-7.7542 5.63771,-15.5671 8.78468,-23.2061 1.56888,-3.7731 3.16148,-7.3494 4.94073,-11.0594 2.27334,-4.7417 4.87914,-9.5105 5.49903,-14.813 0.25323,-3.6819 -1.81929,-7.0308 -4.22639,-9.6383 -4.17973,-4.668 -9.03688,-8.6521 -13.65852,-12.8628 -7.55387,-6.71361 -15.31738,-13.21579 -23.60708,-19.00844 -5.12317,-3.62985 -10.28096,-7.22968 -15.6776,-10.44388 -5.25865,-2.99212 -10.73209,-5.63006 -15.71828,-9.0802 -4.06737,-2.67562 -8.37535,-4.96509 -12.82399,-6.93747 -12.99353,-5.97031 -26.26559,-11.32538 -39.70076,-16.21547 -13.84779,-4.91289 -28.16492,-8.42159 -42.63245,-10.94164 -8.01287,-1.49887 -15.94373,-3.49694 -24.05995,-4.38688 -10.4119,-1.185 -20.85383,-2.10315 -31.30474,-2.86563 -8.0109,-0.55731 -16.03038,-1.06746 -24.06003,-1.23845 -1.24609,-0.0239 -2.49275,-0.004 -3.73903,-0.009 z m 887.80862,0.0977 c -16.85,0.33902 -33.6382,1.97818 -50.3912,3.7179 -14.1486,1.53462 -28.2034,3.94512 -42.0315,7.31845 -38.4606,9.21048 -75.5217,24.82329 -108.2899,47.06105 -12.8773,8.73466 -25.0012,18.55909 -36.3315,29.22029 -4.1134,3.8515 -8.2354,7.7002 -12.368,11.5338 6.6965,15.7818 13.6189,31.4778 19.6347,47.5371 1.9388,5.2178 3.8322,10.5736 5.5313,15.9204 2.6504,8.2562 5.0994,16.6991 7.6722,25.0302 0.2426,0.3356 0.2201,1.7335 0.6629,1.2669 7.8745,-7.8185 15.5582,-15.8154 23.5243,-23.5436 8.6578,-8.3366 17.7304,-16.5317 28.0323,-22.8836 6.004,-3.7694 12.4109,-6.888 19.0792,-9.2937 5.7737,-2.2041 11.6731,-4.0612 17.5994,-5.8071 -0.6333,0.733 -1.5238,1.2189 -2.2372,1.885 -12.3245,10.0685 -23.8506,21.0901 -34.7559,32.6735 -6.9301,7.4453 -13.3256,15.4067 -18.8257,23.9708 -6.2609,9.4569 -12.1156,19.1745 -17.9223,28.9141 -6.3346,10.8378 -12.1392,21.9717 -18.287,32.9149 -4.1033,7.4309 -18.2689,23.0106 -21.8584,30.7098 -1.7967,3.6254 -10.8821,4.3644 -13.1596,7.6911 -2.9026,4.1418 0.752,10.7776 -1.4687,15.3331 -1.0096,2.3731 4.7205,4.6996 7.0914,5.9305 1.8678,1.0052 -10.6646,14.5739 0.9379,0.2923 22.3283,-13.5865 53.824,-36.5449 76.1554,-50.1296 10.5765,-6.3937 21.4085,-12.6168 32.3735,-18.5039 16.4627,-8.8026 33.2637,-17.1359 50.1697,-25.1402 24.5985,-11.5984 49.7752,-22.0193 75.5943,-30.5889 11.8514,-3.9529 23.8019,-7.5307 35.855,-10.7198 7.209,-1.9084 14.4441,-3.6891 21.7563,-5.3718 18.2408,-4.1965 36.7072,-7.6689 55.1979,-10.6862 11.1448,-1.8309 22.2885,-3.6701 33.4322,-5.5087 -16.4749,-16.0949 -33.1198,-32.0189 -49.3096,-48.4025 -2.5033,-2.581 -4.9565,-5.2105 -7.3857,-7.8612 16.4434,-1.9161 33.1169,-3.0059 49.6536,-4.0425 13.4473,-0.8193 26.9087,-1.4033 40.3542,-2.2446 2.242,-0.1585 4.7154,-1.0387 5.7578,-3.1894 1.242,-2.4406 0.1497,-5.6752 -2.2401,-6.9657 -4.2951,-3.257 -9.3963,-5.15506 -14.2869,-7.30857 -12.8891,-5.34817 -26.0652,-9.98043 -39.3375,-14.27828 -8.6443,-2.78107 -17.408,-5.19555 -26.283,-7.12428 -8.1421,-1.82104 -16.2475,-3.81118 -24.4166,-5.50653 -2.7483,-0.55166 -5.5833,-0.98056 -8.3537,-0.98701 -1.1674,-0.0462 -2.1816,-0.0943 -3.3802,-0.22517 -8.1511,-1.10097 -16.2611,-2.59397 -24.4813,-3.11586 -14.3763,-1.09042 -28.805,-1.52027 -43.2212,-1.28833 -3.6694,0.0756 -7.3385,0.21671 -10.9975,0.51068 5.4824,-5.05331 11.2288,-9.84252 17.4435,-13.97537 3.1874,-2.23558 6.4846,-4.41323 9.1509,-7.27684 0.6995,-0.87879 1.3268,-1.89592 2.4235,-2.31809 1.8744,-1.06118 3.8262,-2.0005 5.719,-2.85713 6.2121,-2.75926 12.3482,-5.68502 18.5326,-8.50616 -7.4514,-1.14193 -14.8731,-2.47639 -22.3433,-3.48946 -1.7789,-0.29568 -3.5729,-0.30987 -5.3715,-0.29179 z M 989.94141,1039.7227 c -5.61656,0.6736 -10.72783,3.2751 -15.92588,5.3303 -7.72978,3.3262 -15.42798,6.8403 -22.53287,11.3792 -6.02749,4.1863 -11.29203,9.3379 -16.56858,14.4067 -6.86521,6.7875 -13.31124,13.979 -19.95119,20.9834 -0.0738,8.268 0.14973,16.6436 -0.13281,24.8437 -0.20213,5.3041 -0.5185,10.654 -1.94938,15.7929 -1.3321,5.164 -3.58232,10.0698 -6.53514,14.5064 -3.82875,6.1514 -8.32709,11.9588 -13.89201,16.6423 -6.00977,5.1529 -12.69117,9.4505 -19.44429,13.5521 -12.0588,7.1138 -24.99063,12.5476 -37.70262,18.352 -0.96421,0.6365 -1.06791,1.9098 -0.74609,2.9278 0.70117,6.1293 1.48222,12.1674 1.83584,18.3187 0.21794,2.9436 0.14814,5.8987 0.30902,8.8429 0.29588,3.1593 2.05852,6.1531 4.76334,7.8403 2.6898,1.8508 5.66619,3.2312 8.59918,4.6445 10.70527,4.8812 22.28912,7.4096 33.83051,9.3946 8.62983,1.4081 17.44432,1.9654 26.15376,0.9856 23.28166,-2.2647 46.04184,-10.6872 64.83257,-24.6849 8.53979,-6.4506 6.42486,-5.664 13.43836,-13.739 3.98302,-4.627 7.75602,-9.4922 10.55592,-14.9412 1.69035,-3.2391 15.56405,-4.9162 17.22225,-8.1721 2.529,-5.1467 2.2856,-20.3638 3.5254,-25.9808 2.9044,-11.7201 3.4667,-23.9079 2.8032,-35.9275 -0.7903,-13.3479 -3.6451,-26.5697 -8.4565,-39.0463 -3.6379,-9.8436 -7.6428,-19.551 -11.8899,-29.1465 -2.0098,-4.419 -3.99524,-8.8653 -6.41538,-13.0782 -1.1206,-2.0114 -2.95413,-4.0164 -5.43243,-4.0268 -0.0981,8e-4 -0.19655,-0.018 -0.29428,-10e-5 z m -334.86719,0.9199 c -2.80784,-0.01 -5.03845,2.2703 -6.01367,4.7402 -3.51337,6.965 -6.3297,14.2479 -9.28927,21.457 -4.28476,10.7092 -8.38507,21.5087 -11.72201,32.5551 -2.02191,7.0518 -3.17065,14.3577 -3.29074,21.6964 -0.30248,7.7453 -0.35059,15.5038 -0.11349,23.251 0.34026,7.8263 1.56608,15.6687 4.31562,23.0305 2.63843,7.3003 6.11434,14.2613 9.64645,21.1615 3.15728,6.0553 7.28675,11.5693 12.04404,16.4584 6.69931,6.8692 13.64596,13.5302 21.19309,19.4693 10.04811,7.9618 21.31163,14.5641 33.58873,18.4072 11.62707,3.7116 23.85875,5.1696 36.02779,5.4126 6.43973,0.1491 12.88693,0.1501 19.32383,-0.091 4.91401,-0.3964 9.66093,-1.8338 14.40694,-3.0834 10.80937,-2.9969 21.2974,-7.0177 31.74597,-11.0626 2.03781,-0.4758 3.54647,-2.6398 3.09961,-4.7191 v -33.6403 c -11.58578,-5.8434 -22.91469,-12.2342 -34.85938,-17.3359 -2.39694,-0.6673 -4.6746,-1.7718 -6.59131,-3.3684 -3.35165,-2.4667 -6.61701,-5.174 -10.49516,-6.7793 -1.94944,-1.5199 -3.92493,-3.3858 -5.72575,-5.2186 -4.74879,-4.7091 -9.16095,-9.8089 -12.62871,-15.5471 -2.642,-4.3373 -4.70227,-9.0219 -6.25828,-13.8522 -1.08278,-3.4075 -1.59815,-6.9735 -1.62091,-10.5454 -0.31415,-8.5266 -0.144,-17.0611 -0.20589,-25.5913 -0.0438,-1.1766 0.0814,-2.4128 -0.0656,-3.5529 -7.10871,-8.8847 -14.03121,-18.0206 -22.51911,-25.6625 -6.91854,-6.4003 -14.36078,-12.3458 -22.68251,-16.827 -5.78552,-2.9872 -11.90697,-5.2493 -18.00075,-7.5131 -4.13154,-1.436 -8.3342,-2.8965 -12.72165,-3.2512 -0.19596,3e-4 -0.39193,0 -0.58789,0 z m 169.2793,213.2461 c -5.41908,0.3021 -10.30401,2.8838 -15.30593,4.7211 -11.17221,4.5165 -22.60261,8.8779 -34.5254,11.1408 -9.42711,1.8721 -19.0367,2.4891 -28.55344,3.7201 -4.21684,0.6673 -8.30284,2.3598 -11.57207,5.1362 -4.08693,3.1481 -7.91536,6.6239 -11.60903,10.2193 -1.5326,1.6219 -3.3506,3.4459 -3.30718,5.8418 0.0332,2.3212 1.61702,4.2597 3.4271,5.5509 3.75332,2.9497 8.03584,5.1123 12.18625,7.4331 10.32141,5.5529 21.12894,10.2553 32.38585,13.5576 16.72098,4.9987 34.10801,7.6593 51.53644,8.3048 15.48466,0.5264 31.08757,-0.8149 46.11208,-4.6854 11.73396,-2.9403 23.23541,-6.8044 34.39259,-11.4729 8.76871,-3.7136 17.20653,-8.2105 25.14118,-13.4794 12.76682,-8.1249 25.2839,-16.6842 37.07591,-26.1816 2.05335,-1.7428 23.11356,-6.8282 24.5326,-9.1434 1.38109,-2.6851 -16.50152,-17.2176 -19.49334,-18.0335 -2.96104,-0.8007 -8.34494,14.5525 -11.08422,15.5257 -5.19595,2.0128 -10.35287,4.0911 -15.79321,5.4378 -6.49779,1.704 -13.1541,2.7507 -19.84111,3.3464 -1.38697,0.115 -2.99548,0.2365 -4.46875,0.3223 -1.97868,0.1076 -4.15973,0.1941 -6.21884,0.2457 -8.67663,0.1895 -17.368,0.1959 -26.03225,-0.35 -7.15596,-0.4944 -14.14772,-2.2019 -21.05703,-4.0434 -6.25667,-1.7072 -12.63713,-3.4681 -18.72899,-5.8425 -4.95583,-1.9021 -9.722,-4.2486 -14.56083,-6.4165 -1.4796,-0.5525 -3.05143,-0.907 -4.63838,-0.855 z" /><path
       id="path7879"
       style="display:inline;fill:#d85025"
       d="m 1125.4504,322.63124 18.4418,2.07322 c 10.1429,1.14097 26.8405,3.57907 37.1072,5.41706 10.2667,1.83798 25.5649,5.17195 33.995,7.40824 8.4302,2.23629 15.5379,4.27598 15.796,4.53406 0.2581,0.25808 -3.0775,5.16122 -7.4131,10.89523 -4.3355,5.73402 -11.8277,16.12501 -16.6501,23.09167 -4.8224,6.96667 -13.5851,20.53372 -19.4711,30.14767 -5.886,9.61395 -13.0011,21.86534 -15.8121,27.22684 -2.8109,5.36151 -8.0276,15.49614 -11.5917,22.52068 -3.5642,7.02454 -10.2292,21.77257 -14.8117,32.77257 -4.5825,11 -8.7547,21.34438 -9.2723,22.98873 l -0.9409,2.98999 5.7532,-2.50265 c 3.1643,-1.3766 14.7519,-6.52932 25.7519,-11.45013 11,-4.92081 26.9422,-11.28112 35.4264,-14.13454 l 15.4261,-5.18867 15.7059,-2.6844 c 8.6387,-1.47686 17.4898,-2.68602 19.669,-2.68602 h 3.9631 l -13.4413,14.33398 c -7.3928,7.88334 -17.0089,19.09945 -21.3675,24.92523 -4.3587,5.82578 -11.8414,17.52541 -16.6291,25.99963 l -8.7046,15.40839 1.084,0.36832 c 0.596,0.20296 6.4383,-1.69768 12.983,-4.22524 l 11.8988,-4.59678 10.6604,-2.01853 c 5.8631,-1.11044 13.8278,-2.33188 17.7004,-2.71497 l 7.0415,-0.69643 -3.4805,5.60846 c -1.9144,3.08479 -6.9806,12.71449 -11.2588,21.39963 l -7.7782,15.79118 -1.4539,8.34916 -1.454,8.34755 0.854,4.52762 c 0.4701,2.48971 2.4153,7.76994 4.3234,11.73481 l 3.4693,7.20881 8.6853,10.12482 c 4.7763,5.56846 12.664,14.92499 17.5282,20.79166 4.8643,5.86667 9.9874,11.69631 11.3842,12.95398 l 2.5397,2.28552 8.3636,-15.74614 c 4.6006,-8.66088 12.2798,-24.09088 17.065,-34.28767 4.7851,-10.19679 11.5661,-25.73858 15.0674,-34.53858 3.5013,-8.8 8.2258,-21.70128 10.4996,-28.66795 2.2739,-6.96666 6.4911,-21.36561 9.3721,-31.99894 2.8809,-10.63334 6.7965,-26.83394 8.6998,-36.0006 1.9033,-9.16667 4.63,-24.16563 6.0604,-33.33229 1.4303,-9.16667 3.3208,-24.00193 4.2011,-32.96557 l 1.6004,-16.29622 1.4813,0.85245 c 0.8148,0.46925 6.2816,4.61418 12.1482,9.21125 5.8667,4.59707 12.3336,9.74798 14.3709,11.44531 l 3.7042,3.08489 -3.3954,23.62405 c -1.8677,12.99257 -5.211,33.69255 -7.4291,45.99997 -2.2182,12.30743 -6.1354,31.67709 -8.7062,43.04375 -2.5708,11.36667 -6.1883,26.36562 -8.0372,33.33228 -1.849,6.96667 -5.1624,18.66631 -7.3632,25.99964 -2.2008,7.33334 -7.0409,22.63471 -10.7569,34.00137 -3.716,11.36667 -10.5194,30.91964 -15.1173,43.45228 -4.5978,12.53264 -10.2124,27.1419 -12.4778,32.46537 l -4.1191,9.67929 0.883,1.53441 c 0.4854,0.84388 6.2737,10.18634 12.8623,20.7611 6.5886,10.57477 13.618,21.67599 15.6223,24.66789 2.0044,2.9919 8.624,14.43831 14.7103,25.43831 6.0864,10.99999 15.402,29.00067 20.7,40.00067 5.298,11 13.2013,28.40065 17.5636,38.66732 4.3623,10.26667 11.5991,28.86575 16.0823,41.33242 4.4832,12.46667 11.4981,34.06633 15.5885,47.9992 4.0905,13.93287 8.1284,29.36352 8.9733,34.29089 0.845,4.92736 1.2554,9.24256 0.9103,9.58766 -0.3451,0.3451 -4.2149,-1.128 -8.5985,-3.2731 -4.3835,-2.145 -15.4707,-6.86716 -24.6373,-10.49316 -9.1667,-3.62599 -24.0984,-8.78715 -33.1827,-11.46943 -9.0844,-2.68228 -24.9026,-6.60246 -35.1514,-8.71105 l -18.6348,-3.83279 -19.5146,-2.22441 -19.5162,-2.22279 -25.0941,0.65461 -25.0941,0.65462 5.7612,-5.92049 c 3.1684,-3.25594 12.3615,-10.90946 20.4282,-17.00712 l 14.6653,-11.08664 5.0005,-2.0716 c 2.75,-1.13952 5.0005,-2.48686 5.0005,-2.99483 v -0.92321 l -16.3332,0.88944 c -8.9833,0.48967 -23.8343,1.49269 -33.001,2.22762 -9.1666,0.73492 -21.4663,1.96002 -27.333,2.723 -5.8667,0.76298 -18.0755,3.14375 -27.1303,5.29161 -9.0548,2.14787 -21.6335,5.48365 -27.9538,7.41146 -6.3203,1.92781 -17.8323,6.05187 -25.5815,9.16622 -7.7492,3.11434 -17.3697,7.29427 -21.3787,9.28846 -4.0091,1.99419 -13.4831,7.32071 -21.0538,11.83614 -7.5707,4.51544 -19.8704,12.75772 -27.333,18.31636 -7.4626,5.55858 -18.24,14.48818 -23.949,19.84268 -5.7091,5.3545 -10.6514,9.4648 -10.9821,9.1341 -0.3307,-0.3307 -4.425,-8.6604 -9.1002,-18.5094 -4.6751,-9.8491 -11.06819,-24.50645 -14.20695,-32.57311 -3.13876,-8.06667 -7.73167,-21.56797 -10.20524,-30.0013 l -4.49706,-15.33279 -0.82993,-12.68055 -0.82832,-12.68216 3.53364,-4.19951 3.53363,-4.19951 6.31454,-2.2614 6.31455,-2.26139 29.99974,-1.10497 30.0013,-1.10657 12.666,-2.00406 12.6661,-2.00405 12.0002,-4.1979 c 6.6,-2.30899 15.6004,-6.21401 20.0004,-8.67727 4.4,-2.46326 11.0576,-7.06061 14.7939,-10.21649 3.7362,-3.15588 8.9083,-8.13722 11.4952,-11.07056 2.587,-2.93333 7.3921,-9.53358 10.6765,-14.66691 3.2843,-5.13334 8.523,-14.27656 11.6431,-20.3188 l 5.6744,-10.98692 4.4151,-3.87622 4.4166,-3.87783 7.3938,-2.76643 c 4.0665,-1.5215 11.1665,-3.379 15.7767,-4.12713 4.6102,-0.74813 11.6807,-1.36689 15.714,-1.37517 l 7.3342,-0.0145 -4.5726,-2.78734 c -2.5151,-1.53333 -9.8286,-5.44266 -16.2512,-8.68692 l -11.6785,-5.89957 -5.7484,-1.17091 c -3.1621,-0.64423 -10.8494,-2.56147 -17.0827,-4.26063 l -11.3328,-3.08972 -27.3346,0.005 -27.3329,0.003 -8.6661,2.16489 c -4.7666,1.19087 -12.2677,2.88281 -16.6677,3.75881 -4.4,0.87599 -12.1986,3.11752 -17.332,4.98118 -5.1333,1.86365 -14.7337,6.04497 -21.3337,9.29168 -6.6,3.24671 -17.8319,9.7772 -24.959,14.5125 l -12.9588,8.60972 -11.344,10.73761 -11.34398,10.73923 -7.36965,9.79188 c -4.05337,5.38566 -9.71432,14.18281 -12.57922,19.54999 -2.8649,5.36718 -6.20537,12.75821 -7.42433,16.42488 -1.21895,3.66667 -2.79407,9.6669 -3.49986,13.33356 l -1.28349,6.66678 0.0145,15.36013 0.0145,15.36174 2.72944,13.30621 c 1.50116,7.31845 4.27456,18.40561 6.16174,24.63894 1.88718,6.23334 6.30457,18.53299 9.81762,27.33299 3.51305,8.8 10.35572,24.56287 15.20572,35.02907 4.85,10.4662 8.81881,19.5525 8.81881,20.1902 v 1.158 l -3.64462,0.9152 c -2.00484,0.5031 -8.27997,2.7033 -13.94474,4.8879 l -10.30014,3.9711 -9.72272,6.4303 -9.72111,6.4304 -7.45328,7.828 c -4.09896,4.3051 -9.72127,10.677 -12.49398,14.1603 -2.7727,3.4833 -5.62306,6.3338 -6.33384,6.3338 -0.71078,0 -2.41771,-1.3512 -3.7942,-3.0012 -1.37648,-1.65 -2.5233,-3.6989 -2.54769,-4.5534 l -0.0434,-1.5537 -8.00979,-6.0202 -8.00978,-6.0202 -7.65755,-2.8999 c -4.21155,-1.5948 -13.05614,-4.031 -19.65614,-5.4123 l -12.00021,-2.5106 -18.30831,-1.5538 -18.3067,-1.5553 -16.35894,1.5071 -16.36055,1.5071 -10.50279,2.6892 -10.5044,2.6876 -9.55866,4.5984 -9.55706,4.5968 -5.93818,5.8947 c -3.26603,3.2423 -7.13822,7.4787 -8.60489,9.4139 l -2.66671,3.5176 -8.66601,-10.7714 -8.66761,-10.773 -8.58077,-7.1927 -8.58076,-7.1911 -8.81559,-4.6338 c -4.84856,-2.5478 -13.93198,-6.3507 -20.1853,-8.4521 l -11.36972,-3.8215 10.98692,-24.0535 c 6.04296,-13.2294 14.0325,-32.17697 17.75342,-42.10605 l 6.76489,-18.05258 3.35832,-13.80803 c 1.84695,-7.59485 3.98944,-19.20985 4.76083,-25.80985 l 1.40252,-12.0002 -0.90231,-10.66685 -0.9007,-10.66523 -2.45762,-9.66643 -2.45762,-9.66482 -4.8509,-9.66482 c -2.66785,-5.31587 -7.04211,-12.65956 -9.72112,-16.31873 -2.67901,-3.65917 -7.41057,-9.51932 -10.51566,-13.02314 -3.1051,-3.50382 -10.00615,-10.33873 -15.33439,-15.18803 l -9.68734,-8.8172 -12.0002,-8.01139 -12.0002,-8.00979 -14.18922,-6.89517 c -7.80462,-3.79187 -18.30583,-8.17012 -23.33454,-9.73076 -5.02871,-1.56065 -14.64915,-4.08723 -21.38033,-5.61489 -6.73118,-1.52766 -16.63236,-3.34798 -22.00118,-4.04511 l -9.76132,-1.26741 -16.08873,-0.0418 -16.08712,-0.0418 -7.91168,1.35426 c -4.35135,0.74473 -13.31187,2.61762 -19.91187,4.16252 -6.6,1.5449 -15.51173,4.24533 -19.80412,6.0009 -4.29239,1.75558 -12.09268,5.71011 -17.33362,8.78664 l -9.52972,5.59398 15.49846,1.55371 15.49845,1.55531 6.89356,2.29035 6.89517,2.28874 4.39895,4.53084 4.39895,4.53083 7.5916,14.60901 7.5916,14.61062 5.96713,7.93902 c 3.28191,4.3659 9.45798,11.16892 13.7244,15.11887 4.26642,3.94995 11.00773,9.32221 14.98216,11.93748 3.97443,2.61526 11.3143,6.37509 16.31069,8.35559 4.99639,1.9805 13.48373,4.72561 18.85999,6.10062 5.37625,1.37501 14.48735,3.15961 20.24803,3.96468 5.76069,0.80507 23.07431,2.01409 38.47431,2.68762 l 28.00047,1.22399 6.92734,2.09895 6.92573,2.09895 2.7407,3.48377 2.73908,3.48217 v 11.72999 11.7316 l -3.8923,15.08992 -3.89231,15.08992 -6.18426,15.99545 c -3.40132,8.79811 -10.43553,24.82838 -15.63195,35.62108 l -9.44768,19.6224 -9.83209,-9.1824 c -5.4078,-5.0503 -15.37242,-13.3861 -22.14272,-18.52383 -6.77031,-5.13769 -18.01004,-13.01107 -24.9767,-17.49768 -6.96667,-4.48661 -19.39539,-11.4424 -27.62089,-15.45663 -8.2255,-4.01424 -20.47276,-9.40454 -27.21557,-11.97769 -6.7428,-2.57315 -19.21262,-6.67859 -27.71097,-9.1244 -8.49836,-2.44581 -23.55291,-5.97926 -33.45291,-7.85216 l -17.9995,-3.40657 -20.66621,-1.44112 C 403.63352,930.03481 387.88333,928.99653 380,928.52163 l -14.33398,-0.86371 v 1.3993 1.3993 l 4.16252,1.45077 4.1609,1.45077 14.83902,11.23943 c 8.16136,6.18185 17.36567,13.83934 20.45551,17.01517 l 5.61811,5.77412 -32.9511,0.10455 -32.9511,0.10454 -18.01719,2.78413 c -9.90921,1.53156 -25.17763,4.39161 -33.93061,6.35475 -8.75298,1.96313 -24.04588,6.21397 -33.98369,9.44607 -9.93781,3.23209 -25.56814,9.05914 -34.7348,12.94916 l -16.66614,7.07212 0.3651,1.6888 0.36511,1.6872 -3.03182,-0.4295 -3.03182,-0.431 -0.41818,-2.9353 -0.41818,-2.9369 6.14245,-23.73024 c 3.37792,-13.05166 9.20171,-32.73053 12.94271,-43.73053 3.74101,-11 9.95498,-28.09983 13.80804,-37.99983 3.85306,-9.9 10.33395,-25.59425 14.40153,-34.87635 4.06759,-9.2821 10.7536,-23.57311 14.85831,-31.75767 4.10471,-8.18456 12.28029,-23.6611 18.16838,-34.39221 5.88809,-10.7311 13.29256,-23.4411 16.45384,-28.24334 3.16128,-4.80224 10.70325,-16.53064 16.76103,-26.06397 l 11.01426,-17.33363 -2.73748,-7.33265 c -1.5056,-4.03334 -6.72157,-17.83385 -11.59167,-30.66718 -4.87011,-12.83333 -13.61446,-38.03267 -19.43097,-55.99934 -5.81651,-17.96666 -12.6162,-40.1675 -15.11083,-49.33417 -2.49462,-9.16667 -6.69434,-25.96569 -9.33349,-37.33235 -2.63915,-11.36667 -6.33193,-28.84625 -8.206,-38.84263 -1.87407,-9.99639 -5.17659,-30.09633 -7.33909,-44.66662 l -3.93252,-26.4918 6.98364,-6.44321 c 3.84089,-3.54376 10.88297,-9.38287 15.64964,-12.9765 l 8.66761,-6.53489 1.01811,10.31139 c 0.55975,5.67073 1.92719,17.51006 3.03986,26.31006 1.11268,8.8 3.54229,24.09977 5.39937,33.99977 1.85708,9.9 5.18333,25.19976 7.39216,33.99976 2.20883,8.8 7.19583,25.60064 11.08181,37.33397 3.88598,11.73333 9.48412,27.40177 12.4393,34.81844 2.95518,7.41667 7.3028,17.61705 9.6616,22.66705 2.35879,5.04999 10.32292,21.63155 17.69873,36.84822 7.37582,15.21666 13.7539,27.62515 14.17314,27.57586 0.41924,-0.0493 4.0617,-4.05764 8.09503,-8.90887 4.03334,-4.85123 7.57479,-9.46102 7.86985,-10.24384 0.29505,-0.78282 4.74321,-6.20526 9.88517,-12.05007 5.14197,-5.8448 11.61721,-14.13613 14.38866,-18.42411 l 5.03909,-7.79587 1.60678,-7.17664 1.60518,-7.17825 -1.42182,-7.06566 c -0.78197,-3.8864 -2.6609,-10.36658 -4.17538,-14.39992 -1.51447,-4.03333 -6.57974,-13.75975 -11.25713,-21.61516 l -8.50517,-14.28251 6.14888,0.69804 c 3.38196,0.38385 10.34904,1.33448 15.48237,2.11343 l 9.33349,1.41699 10.00097,3.6414 c 5.5,2.00326 12.24985,4.63709 14.99985,5.85293 2.75,1.21585 5.00049,1.8902 5.00049,1.49741 0,-0.39278 -2.4812,-5.64741 -5.51196,-11.6753 -3.03077,-6.0279 -8.41486,-15.26471 -11.96642,-20.52789 -3.55156,-5.26318 -9.60964,-13.36812 -13.46062,-18.01076 -3.85098,-4.64264 -12.11458,-13.77093 -18.36461,-20.28502 l -11.36328,-11.84419 9.33349,0.93447 c 5.13333,0.51354 16.21906,2.45243 24.63572,4.31049 l 15.30223,3.37923 13.36412,4.73188 c 7.35,2.60256 23.26368,9.18489 35.36368,14.62832 12.1,5.44343 22.73555,10.21316 23.63369,10.59768 l 1.63252,0.69804 -5.47174,-13.12929 c -3.00915,-7.22135 -8.86076,-20.92958 -13.00384,-30.46292 l -7.53209,-17.33362 -11.59007,-21.00237 c -6.37403,-11.55108 -16.06212,-28.05089 -21.52991,-36.66648 -5.46779,-8.61559 -15.98572,-23.95566 -23.37314,-34.08984 -7.38741,-10.13418 -13.43167,-18.90695 -13.43167,-19.4953 v -1.07119 l 16.14825,-4.27188 c 8.88145,-2.34998 21.94995,-5.39671 29.0411,-6.77133 7.09115,-1.37462 23.33973,-3.68895 36.10836,-5.14202 l 23.21551,-2.64259 7.40986,6.48021 c 4.07543,3.56362 12.56946,11.77244 18.87446,18.24236 6.305,6.46992 21.27111,22.56418 33.2583,35.76418 11.9872,13.2 27.71522,31.19906 34.95194,39.99906 7.23671,8.8 15.10638,17.61749 17.48803,19.59342 l 4.32979,3.59153 5.92049,-1.88181 c 3.25611,-1.03532 13.72078,-3.97393 23.25411,-6.53007 9.53333,-2.55614 22.13219,-5.8405 27.99886,-7.29887 5.86666,-1.45838 19.36797,-4.18205 30.00131,-6.05238 10.63333,-1.87033 27.73317,-4.39337 37.99984,-5.60685 l 18.66698,-2.20671 39.33319,-0.0434 39.33319,-0.0418 20.66621,2.29034 c 11.36667,1.25989 29.36735,3.80792 40.00068,5.66315 10.63333,1.85523 24.43223,4.55081 30.66557,5.98964 6.23333,1.43882 19.43383,4.71871 29.33383,7.28923 9.9,2.57052 20.7357,5.46072 24.0792,6.4223 l 6.0781,1.74832 4.0162,-4.12874 c 2.2084,-2.27119 11.4358,-12.82987 20.5053,-23.4632 9.0695,-10.63333 24.5796,-28.33319 34.4662,-39.33319 9.8866,-11 21.9223,-24.09512 26.7476,-29.10061 4.8254,-5.00549 13.3746,-13.27562 18.9983,-18.37747 z" /><path
       style="display:inline;fill:#0a0d17"
       d="m 565.66668,1417.3708 c -3.3,-0.5684 -9.83941,-2.3343 -14.53202,-3.9243 -4.6926,-1.5899 -12.1926,-4.7369 -16.66666,-6.9932 -4.47406,-2.2564 -11.53616,-6.7176 -15.69356,-9.9139 -4.15739,-3.1963 -10.33818,-8.9637 -13.73509,-12.8165 -3.3969,-3.8527 -8.285,-10.4487 -10.86245,-14.6576 l -4.68626,-7.6527 -3.75277,-10.3473 -3.75276,-10.3474 -1.68129,-9.5279 -1.68129,-9.5279 0.75978,-15.8054 0.75978,-15.8054 2.80862,-11.3334 2.80862,-11.3333 5.42203,-10.6667 c 2.98212,-5.8666 8.0917,-14.6931 11.35462,-19.6143 3.26293,-4.9212 10.70042,-15.0314 16.52775,-22.467 l 10.59516,-13.5192 -0.6943,-1.1235 c -0.38187,-0.6178 -7.73011,-4.9862 -16.32944,-9.7074 -8.59933,-4.7211 -25.53514,-13.2341 -37.63514,-18.9176 -12.1,-5.6835 -30.08747,-13.6251 -39.97216,-17.6481 -9.88469,-4.023 -28.77092,-11.1553 -41.96941,-15.8497 -13.19848,-4.6944 -33.45489,-11.2321 -45.01423,-14.5281 -11.55934,-3.2961 -27.17311,-7.4906 -34.69725,-9.321 l -13.68027,-3.328 -16.66667,-2.0263 c -9.16667,-1.1145 -28.36666,-3.7834 -42.66666,-5.9311 -14.3,-2.1476 -30.62604,-4.3109 -36.28008,-4.8074 l -10.28007,-0.9028 5.94674,-6.798 c 3.27071,-3.7389 5.94674,-7.3415 5.94674,-8.0058 0,-0.6643 3.26218,-5.1746 7.24928,-10.0229 3.98711,-4.8483 11.18711,-12.6978 16,-17.4432 l 8.75072,-8.6282 v -1.7052 -1.7052 l -29.66667,-0.077 -29.66666,-0.077 -5.33334,-0.9396 -5.33333,-0.9396 -0.38981,-5.9836 -0.38981,-5.9836 4.59753,-18 c 2.52864,-9.9 7.05895,-27.29996 10.06735,-38.66663 3.00841,-11.36666 9.71765,-34.16666 14.90944,-50.66666 5.19178,-16.5 12.49775,-37.8 16.23549,-47.33333 3.73774,-9.53334 10.61415,-25.73334 15.2809,-36 4.66675,-10.26667 14.57253,-30.06667 22.01283,-44 7.44031,-13.93333 13.9338,-25.63333 14.42998,-26 0.49618,-0.36667 2.72881,-4.26667 4.96138,-8.66667 2.23258,-4.4 7.70868,-12.8 12.16911,-18.66666 l 8.10988,-10.66667 1.4273,-4.29606 1.4273,-4.29606 -2.67874,-9.76406 c -1.4733,-5.37023 -9.2177,-27.73701 -17.20977,-49.70394 l -14.53104,-39.93987 -3.01829,-13.33334 c -1.66005,-7.33333 -5.94513,-23.53333 -9.52239,-36 -3.57725,-12.46666 -8.28012,-31.06666 -10.45082,-41.33333 -2.1707,-10.26666 -5.1605,-25.86666 -6.64401,-34.66666 -1.48351,-8.8 -4.04103,-27.1 -5.68338,-40.66667 l -2.98608,-24.66666 -0.0622,-67.33333 -0.0622,-67.33334 3.05818,-20.66666 c 1.68199,-11.36667 4.85439,-29.66667 7.04977,-40.66667 2.19538,-11 6.05565,-27.5 8.57837,-36.66666 2.52273,-9.16667 6.61961,-22.66667 9.10418,-30 2.48458,-7.33333 7.38979,-20.15644 10.90049,-28.4958 l 6.38307,-15.16246 2.7963,-3.23301 2.7963,-3.233 7.33334,3.94009 c 4.03333,2.16705 14.23333,6.76501 22.66666,10.21769 8.43334,3.45269 19.53334,8.37806 24.66667,10.94526 5.13333,2.56721 18.27463,9.77844 29.20289,16.02496 l 19.86956,11.35732 30.79711,20.60628 c 16.9384,11.33346 39.7971,27.39074 50.7971,35.68285 11,8.29211 29.50767,23.08805 41.12815,32.87986 11.62049,9.79181 22.70691,18.65141 24.6365,19.68801 l 3.50834,1.88472 34.29985,34.52258 c 18.86492,18.98742 44.0785,45.39631 56.03017,58.68641 11.95168,13.29011 23.8833,26.54897 26.51473,29.46415 l 4.7844,5.30032 26.54893,-6.7934 c 14.60191,-3.73636 34.04892,-8.07127 43.21559,-9.63313 9.16666,-1.56186 23.78977,-3.67747 32.49578,-4.70137 8.70602,-1.02389 28.50602,-2.52646 44,-3.33904 L 821,383.84984 l 18.66667,0.81373 c 10.26666,0.44754 26.46666,1.43453 35.99999,2.19329 9.53334,0.75877 25.43334,2.51732 35.33334,3.9079 9.9,1.39058 22.76464,3.44195 28.5881,4.5586 5.82345,1.11665 21.84145,4.85884 35.59555,8.31599 l 25.00745,6.28571 3.0696,-3.93688 c 1.6883,-2.16529 7.7974,-9.33689 13.5758,-15.93689 5.7784,-6.6 18.0042,-20.09999 27.1684,-29.99999 9.1642,-9.9 27.0307,-28.5 39.7032,-41.33334 12.6726,-12.83333 26.8475,-26.51009 31.4998,-30.39281 4.6523,-3.88271 16.8588,-13.98394 27.1254,-22.44717 10.2667,-8.46324 27.9667,-22.42502 39.3334,-31.02618 11.3666,-8.60116 26.6664,-19.79993 33.9996,-24.88616 7.3331,-5.08622 20.5814,-14.04767 29.4407,-19.91434 8.8593,-5.86666 19.0595,-12.87952 22.6671,-15.58411 l 6.5592,-4.91745 28.687,-15.388 c 15.7778,-8.4634 39.0573,-20.16185 51.7323,-25.99657 l 23.0454,-10.60856 1.3294,3.58068 c 0.7312,1.96937 5.8076,14.76709 11.2808,28.43937 l 9.9514,24.85868 7.1914,25.14131 7.1914,25.14132 0.9177,9.33333 c 0.5048,5.13333 3.0989,20.43333 5.7647,34 l 4.8469,24.66666 0.031,70.66667 0.031,70.66666 -2.4195,17.33334 c -1.3307,9.53333 -4.1958,27.15426 -6.367,39.15762 -2.1711,12.00335 -6.9589,35.40335 -10.6395,51.99999 -3.6805,16.59664 -8.7158,37.67571 -11.1894,46.84238 -2.4737,9.16667 -6.385,23.26667 -8.6919,31.33333 -2.3069,8.06667 -7.24,23.66667 -10.9625,34.66667 -3.7225,11 -10.5466,30.15376 -15.1646,42.56391 l -8.3965,22.56392 6.1351,9.43608 c 3.3743,5.18985 10.3277,16.33608 15.452,24.76942 5.1243,8.43333 13.2505,22.53333 18.058,31.33333 4.8076,8.8 13.4968,26.2 19.3093,38.66666 5.8125,12.46667 14.6876,32.80964 19.7223,45.2066 5.0348,12.39696 9.1564,23.49696 9.159,24.66666 0,1.16971 3.3181,11.42674 7.3675,22.79341 4.0495,11.36666 10.3045,30.65677 13.9002,42.86689 3.5957,12.21012 8.922,32.91012 11.8364,46 2.9143,13.0899 5.6712,25.9802 6.1263,28.6451 l 0.8276,4.8453 -2.3647,1.0379 -2.3648,1.0379 -29.3333,0.4854 c -16.1333,0.267 -31.2833,0.7967 -33.6667,1.1772 l -4.3333,0.6918 v 1.2148 c 0,0.6681 6.5317,8.1484 14.5149,16.6228 7.9832,8.4743 17.5866,19.618 21.341,24.7636 l 6.8262,9.3557 -1.6744,0.5173 c -0.9209,0.2844 -4.9744,0.8317 -9.0077,1.2161 -4.0333,0.3844 -17.8333,1.959 -30.6667,3.4991 -12.8333,1.5401 -33.5333,4.6198 -46,6.8438 -12.4666,2.224 -32.5666,6.3578 -44.6666,9.1861 -12.1,2.8283 -29.5,7.5385 -38.6667,10.467 -9.1667,2.9286 -23.8666,7.9897 -32.6666,11.2468 -8.8,3.2572 -20.8,7.8545 -26.6667,10.2164 -5.8667,2.3618 -16.9667,7.0152 -24.6667,10.3408 -7.7,3.3257 -26.3,12.2605 -41.3333,19.8552 -15.0333,7.5948 -36.0207,18.9587 -46.6386,25.2531 -10.6179,6.2944 -19.6179,11.8576 -20,12.3625 -0.3821,0.5049 -6.9947,5.0496 -14.6947,10.0992 -7.7,5.0497 -20.6,13.7746 -28.6667,19.3887 -8.0667,5.6142 -16.1667,10.9702 -18,11.9023 -1.8333,0.9322 -16.5333,12.2018 -32.66667,25.0436 l -29.33334,23.3489 -15.99999,10.7644 -16,10.7644 -17.33334,8.4485 -17.33333,8.4486 L 887,1348.5502 c -6.23334,1.7646 -17.33334,4.2864 -24.66667,5.6041 L 849,1356.55 l -26,0.031 -26,0.031 -15.70982,-2.9664 -15.70983,-2.9663 -12.95684,-4.1427 -12.95684,-4.1426 -10.33797,-5.189 c -5.68589,-2.8539 -14.24645,-7.5812 -19.02348,-10.5051 -4.77704,-2.9239 -9.22161,-5.3161 -9.87684,-5.3161 -0.65523,0 -2.60399,1.6788 -4.33058,3.7308 -1.72658,2.0519 -8.06558,13.6019 -14.08666,25.6666 l -10.94741,21.9359 -9.36573,10.8874 -9.36573,10.8874 -8.3328,6.3059 -8.3328,6.3059 -8.28394,3.9093 -8.28395,3.9093 -10.38272,1.8509 -10.38272,1.8509 -13.33333,-0.1103 c -7.33333,-0.061 -16.03333,-0.5754 -19.33333,-1.1438 z m 34.59615,-31.3851 8.59614,-2.0261 8.46475,-4.1672 8.46474,-4.1672 6.39269,-6.9946 c 3.51598,-3.847 8.59191,-10.3079 11.27984,-14.3574 2.68793,-4.0496 8.58389,-14.4561 13.10212,-23.1257 4.51824,-8.6696 11.99668,-21.4629 16.61875,-28.4296 4.62208,-6.9666 12.02201,-16.8234 16.44429,-21.904 4.42229,-5.0805 8.04028,-9.5805 8.03998,-10 -2.9e-4,-0.4194 -6.15029,-3.6172 -13.66666,-7.1061 -7.51637,-3.4889 -14.26613,-6.361 -14.99946,-6.3825 -0.73334,-0.021 -5.50963,-2.9878 -10.61398,-6.5918 l -9.28064,-6.5528 -4.71936,2.7934 c -2.59565,1.5364 -6.93417,4.5073 -9.64117,6.602 -2.707,2.0947 -5.55519,3.8085 -6.32932,3.8085 -0.77412,0 -5.89722,4.2648 -11.38467,9.4773 l -9.97718,9.4774 -8.52706,11.5226 c -4.68988,6.3375 -11.38294,16.4727 -14.87346,22.5227 -3.49052,6.05 -6.57252,11 -6.84887,11 -0.27636,0 -0.12443,-2.55 0.33762,-5.6667 0.46205,-3.1166 1.98279,-10.6984 3.37943,-16.8484 1.39664,-6.15 4.10068,-15.15 6.00897,-20 1.90829,-4.85 4.71452,-10.9182 6.23607,-13.4849 1.52155,-2.5667 5.85317,-8.5667 9.62583,-13.3333 3.77266,-4.7667 11.08296,-12.7929 16.24512,-17.8359 l 9.38573,-9.1693 -11.35429,-17.4974 c -6.24485,-9.6236 -11.51485,-17.6872 -11.71109,-17.9192 -0.19624,-0.232 -5.967,2.7203 -12.82391,6.5606 -6.85691,3.8403 -16.0671,9.3766 -20.4671,12.303 l -8,5.3207 -12,12.162 -12,12.162 -5.97083,9.2901 c -3.28396,5.1095 -6.4145,9.6134 -6.95676,10.0087 -0.54226,0.3952 -3.0515,5.1952 -5.57609,10.6666 -2.52459,5.4714 -5.98869,14.1481 -7.698,19.2814 l -3.10783,9.3333 10e-4,14.6667 0.001,14.6667 3.04,8.8337 c 1.672,4.8586 5.11611,12.3586 7.65358,16.6667 l 4.61358,7.8329 8.82132,8.2266 8.82131,8.2265 8.84505,4.3644 c 4.86478,2.4004 11.84505,5.0974 15.51172,5.9934 l 6.66666,1.629 8.66667,0.094 8.66667,0.094 z m 251.92561,-62.5738 c 6.15365,-1.0829 15.6912,-3.2043 21.19456,-4.7141 5.50336,-1.5098 15.07239,-4.8423 21.2645,-7.4056 l 11.25839,-4.6604 14.66394,-8.7814 c 8.06517,-4.8298 20.46135,-13.1295 27.54706,-18.4438 7.08571,-5.3143 15.2831,-11.8209 18.21644,-14.4592 l 5.33333,-4.7969 -11.50798,4.6232 c -6.32939,2.5427 -16.37282,5.8339 -22.31872,7.3137 l -10.81074,2.6907 -13.09896,1.248 -13.09895,1.2481 -11.91566,-1.2566 -11.91565,-1.2567 -13.908,-3.3927 -13.90799,-3.3927 -11.7605,-5.2954 c -6.46827,-2.9125 -12.58669,-5.2955 -13.59649,-5.2955 -1.0098,0 -8.13262,2.705 -15.82847,6.0111 l -13.99247,6.0112 -10.46607,2.6768 -10.46608,2.6767 -15.82235,1.5483 -15.82235,1.5484 -9.54795,7.963 c -5.25137,4.3796 -9.70904,8.3566 -9.90593,8.8377 -0.19689,0.4811 2.20311,2.2806 5.33333,3.9988 3.13023,1.7183 6.59132,3.886 7.69132,4.8171 1.1,0.9311 6.81265,3.8048 12.69478,6.386 5.88212,2.5811 16.08212,6.2576 22.66666,8.1699 6.58454,1.9123 16.47189,4.2957 21.97189,5.2963 l 10,1.8194 19.33334,0.1178 19.33333,0.1178 z m -87.69642,-79.9843 c 6.14605,-1.0764 15.5645,-3.4542 20.92987,-5.2841 5.36537,-1.8298 12.43342,-4.6645 15.70676,-6.2993 l 5.95154,-2.9723 -0.37343,-15.3726 -0.37343,-15.3726 -20.07799,-10.0377 -20.078,-10.0377 -8.77675,-6.2971 -8.77675,-6.297 -5.6283,-6.3697 -5.6283,-6.3696 -3.30835,-7.3333 c -1.81958,-4.0333 -4.19753,-10.2577 -5.28433,-13.8319 l -1.97598,-6.4985 -0.048,-8.3151 c -0.0264,-4.5733 0.39688,-10.9482 0.9406,-14.1664 l 0.98857,-5.8513 2.82678,-3.8712 c 1.55473,-2.1291 5.49899,-6.5161 8.76502,-9.7489 l 5.93824,-5.8777 9.55755,-4.597 9.55755,-4.597 10.50421,-2.6886 10.5042,-2.6885 16.35917,-1.507 16.35917,-1.507 18.3075,1.5543 18.3075,1.5544 11.99999,2.5113 c 6.6,1.3813 15.44582,3.8163 19.65737,5.4111 l 7.65737,2.8996 8.0093,6.0207 8.0093,6.0207 v 1.5673 c 0,0.862 1.53132,3.2187 3.40293,5.2372 l 3.40293,3.6699 1.43352,8.1382 1.43352,8.1383 -1.56664,9.4864 -1.56664,9.4863 -3.41867,8.0252 c -1.88026,4.4139 -4.10167,9.4828 -4.93647,11.2643 -0.8348,1.7814 -4.4326,6.4365 -7.99511,10.3444 l -6.47729,7.1054 -10.90147,7.2536 -10.90147,7.2536 -16.99867,8.0222 -16.99868,8.0222 0.37744,15.0464 0.37744,15.0464 9.62607,4.7719 9.62607,4.7719 9.16871,2.213 c 5.04278,1.2171 13.91105,2.8808 19.70726,3.697 l 10.53855,1.4841 9.37502,-0.8314 c 5.15626,-0.4573 14.3326,-2.0156 20.39186,-3.4628 6.05926,-1.4472 15.30971,-4.4581 20.55655,-6.6908 l 9.53972,-4.0595 10.82631,-7.2036 10.82631,-7.2036 9.42286,-9.9198 9.42286,-9.9198 5.59371,-9.4155 5.5936,-9.4155 3.1666,-9.1057 3.1667,-9.1057 1.5607,-9.9688 1.5606,-9.9687 -0.7719,-13.3333 -0.7719,-13.3334 -2.6475,-10.2248 c -1.4561,-5.6236 -5.3104,-17.0236 -8.5651,-25.3333 -3.2547,-8.3097 -12.06289,-28.3085 -19.57372,-44.4419 -7.51082,-16.1333 -16.5274,-36.5333 -20.03686,-45.3333 -3.50945,-8.8 -7.92488,-21.09999 -9.81206,-27.33333 -1.88718,-6.23333 -4.65946,-17.32116 -6.16062,-24.63961 l -2.72938,-13.30629 -0.0146,-15.36038 -0.0147,-15.36038 1.28325,-6.66667 c 0.70579,-3.66666 2.28058,-9.66666 3.49953,-13.33333 1.21896,-3.66667 4.5603,-11.05799 7.4252,-16.42517 2.8649,-5.36718 8.5253,-14.16496 12.57867,-19.55062 l 7.36976,-9.79212 11.34418,-10.73821 11.34425,-10.73822 12.9584,-8.60964 c 7.1271,-4.7353 18.3584,-11.26604 24.9584,-14.51275 6.6,-3.24671 16.2,-7.42792 21.3333,-9.29157 5.1334,-1.86366 12.9334,-4.1052 17.3334,-4.98119 4.4,-0.876 11.9,-2.56706 16.6666,-3.75793 l 8.6667,-2.1652 27.3333,-0.004 27.3334,-0.004 11.3333,3.08938 c 6.2333,1.69916 13.9205,3.61649 17.0826,4.26072 l 5.7493,1.17134 11.6777,5.89863 c 6.4226,3.24426 13.7355,7.15319 16.2506,8.68652 l 4.5731,2.78788 -7.3333,0.015 c -4.0333,0.008 -11.1053,0.62717 -15.7155,1.3753 -4.6102,0.74813 -11.7094,2.60511 -15.7759,4.12661 l -7.3938,2.76638 -4.4162,3.87743 -4.4161,3.87743 -5.6731,10.98588 c -3.1201,6.04224 -8.3602,15.18588 -11.6445,20.31922 -3.2844,5.13333 -8.0881,11.73333 -10.6751,14.66666 -2.5869,2.93334 -7.7604,7.91542 -11.4966,11.0713 -3.7363,3.15588 -10.3932,7.75335 -14.7932,10.21661 -4.4,2.46326 -13.4,6.36784 -20,8.67683 l -12,4.19817 -12.6667,2.00403 -12.6666,2.00402 -30,1.10548 -30.00008,1.10547 -6.31502,2.26148 -6.31502,2.26147 -3.53365,4.19951 -3.53365,4.1995 0.82937,12.6814 0.82936,12.6814 4.49741,15.33333 c 2.47357,8.43333 7.06515,21.93333 10.20351,30 3.13836,8.06666 12.13987,28.16663 20.00327,44.66663 7.8634,16.5 16.4141,35.4 19.0016,42 2.5875,6.6 6.9252,19.2 9.6395,28 2.7142,8.8 5.1826,16.8043 5.4853,17.7874 l 0.5504,1.7875 4.3312,-5.1208 c 2.3821,-2.8164 9.1724,-9.6208 15.0894,-15.1208 5.9171,-5.5 12.816,-11.8267 15.331,-14.0593 2.515,-2.2326 6.3727,-5.3112 8.5727,-6.8412 2.2,-1.53 8.2,-4.9066 13.3334,-7.5035 5.1333,-2.597 13.2333,-5.9709 18,-7.4977 4.7666,-1.5267 13.1666,-3.6147 18.6666,-4.6399 l 10,-1.8639 -3.8965,2.8694 c -2.143,1.5782 -8.443,6.287 -14,10.464 -5.5569,4.1769 -14.0232,11.3769 -18.8139,16 -4.7908,4.623 -12.7583,12.8191 -17.7056,18.2136 -4.9473,5.3945 -9.9643,11.6945 -11.1489,14 -1.1846,2.3055 -4.3685,7.4919 -7.0753,11.5252 -2.7068,4.0333 -7.6345,11.8333 -10.9506,17.3333 -3.316,5.5 -12.115,21.2416 -19.5533,34.9813 -7.4383,13.7397 -15.4337,28.1397 -17.7676,32 -2.3339,3.8603 -6.7096,10.3187 -9.7238,14.3521 -3.0141,4.0333 -5.9758,8.1418 -6.5814,9.13 -0.6056,0.9881 6.9204,-3.5538 16.7246,-10.0932 9.8041,-6.5394 25.9257,-16.921 35.8257,-23.0701 9.9,-6.1492 18.3,-11.5616 18.6666,-12.0277 0.3667,-0.466 8.7667,-5.4777 18.6667,-11.1369 9.9,-5.6593 30.3,-16.4387 45.3333,-23.9543 15.0334,-7.5156 36.6334,-17.6027 48,-22.4157 11.3667,-4.813 32.1201,-12.7264 46.1187,-17.5853 13.9986,-4.8589 28.4424,-9.4016 32.0973,-10.0947 3.655,-0.6931 13.8016,-3.0527 22.548,-5.2433 8.7465,-2.1907 23.4047,-5.4884 32.5737,-7.3282 9.1691,-1.8398 25.3311,-4.595 35.9156,-6.1228 10.5845,-1.5278 19.3306,-2.9159 19.4358,-3.0845 0.1052,-0.1687 -12.964,-12.8926 -29.0426,-28.2754 l -29.2339,-27.9687 3.7937,-0.9363 c 2.0865,-0.5149 16.9937,-1.8532 33.127,-2.9738 16.1334,-1.1207 39.0834,-2.4402 51,-2.9323 l 21.6667,-0.8946 -0.01,-3.4961 c -0.01,-1.9229 -1.1709,-8.2961 -2.5906,-14.16277 -1.4197,-5.86666 -5.5348,-20.56666 -9.1446,-32.66666 -3.6098,-12.1 -10.0304,-31.6 -14.2679,-43.33333 -4.2375,-11.73334 -11.2746,-29.73333 -15.6381,-40 -4.3634,-10.26667 -12.2682,-27.66667 -17.5662,-38.66667 -5.298,-11 -14.6125,-29 -20.6989,-39.99999 -6.0863,-11 -12.706,-22.44792 -14.7104,-25.43982 -2.0043,-2.9919 -9.0349,-14.0919 -15.6235,-24.66667 -6.5886,-10.57476 -12.3764,-19.9173 -12.8618,-20.76118 l -0.8825,-1.53433 4.1188,-9.67905 c 2.2654,-5.32347 7.8807,-19.93302 12.4785,-32.46566 4.5979,-12.53264 11.4002,-32.08662 15.1162,-43.45329 3.716,-11.36666 8.5571,-26.66666 10.7579,-34 2.2008,-7.33333 5.5142,-19.03333 7.3632,-26 1.8489,-6.96666 5.465,-21.96666 8.0358,-33.33333 2.5708,-11.36666 6.489,-30.73638 8.7072,-43.04381 2.2181,-12.30742 5.5571,-33.00742 7.4199,-45.99999 l 3.3869,-23.62286 -4.3619,-3.69102 c -2.3991,-2.03006 -9.6117,-7.73006 -16.028,-12.66666 l -11.666,-8.97565 -0.015,-28 -0.015,-28 -1.9224,-18 c -1.0573,-9.9 -3.1921,-24.55138 -4.7439,-32.55862 -1.5519,-8.00725 -4.3296,-20.30725 -6.1725,-27.33334 -1.843,-7.02609 -4.8381,-17.7247 -6.6558,-23.7747 -1.8177,-6.05 -3.5982,-11 -3.9566,-11 -0.3584,0 -5.5721,3.95385 -11.586,8.78634 -6.0138,4.83249 -17.8037,14.58249 -26.1998,21.66666 -8.3961,7.08418 -19.7961,17.44608 -25.3333,23.02645 -5.5373,5.58036 -15.8848,16.98036 -22.9944,25.33333 -7.1096,8.35297 -14.5698,17.30638 -16.5781,19.89646 l -3.6516,4.70925 -15.4218,-4.21223 c -8.4821,-2.31673 -24.1219,-5.77061 -34.7552,-7.67529 -10.6334,-1.90468 -27.6321,-4.39798 -37.775,-5.54067 l -18.4416,-2.07762 -10.2251,9.27609 c -5.6237,5.10185 -14.173,13.3715 -18.9984,18.37699 -4.8253,5.00549 -16.8623,18.1009 -26.7489,29.1009 -9.8866,11 -25.3961,28.7 -34.4656,39.33333 -9.0695,10.63333 -18.2969,21.19158 -20.5053,23.46277 l -4.0153,4.12944 -6.0791,-1.74834 c -3.3435,-0.96158 -14.17911,-3.85149 -24.07911,-6.42201 -9.9,-2.57052 -23.1,-5.85089 -29.33333,-7.28971 -6.23334,-1.43883 -20.03334,-4.13396 -30.66667,-5.98919 -10.63333,-1.85523 -28.63333,-4.40398 -40,-5.66387 l -20.66666,-2.29073 -39.33334,0.0433 -39.33333,0.0433 -18.66666,2.20632 c -10.26667,1.21348 -27.36667,3.73659 -38,5.60692 -10.63334,1.87033 -24.13334,4.59382 -30,6.0522 -5.86667,1.45837 -18.46667,4.74297 -28,7.29911 -9.53333,2.55614 -19.99742,5.49461 -23.25353,6.52993 l -5.92021,1.88241 -4.33025,-3.5926 c -2.38165,-1.97593 -10.25121,-10.7926 -17.48792,-19.5926 -7.23672,-8.8 -22.96537,-26.8 -34.95257,-40 -11.98719,-13.2 -26.95354,-29.29357 -33.25854,-35.76349 -6.305,-6.46992 -14.79809,-14.67918 -18.87352,-18.2428 l -7.40988,-6.47931 -23.25679,2.62859 -23.25678,2.62859 -16,3.23653 c -8.8,1.78009 -22.1827,4.97939 -29.73934,7.10956 l -13.73933,3.87304 -12.96518,-14.82869 c -7.13085,-8.15578 -17.61804,-20.35413 -23.30488,-27.10745 -5.68683,-6.75332 -13.06171,-14.55332 -16.38863,-17.33333 -3.32693,-2.78002 -10.65703,-9.12474 -16.28913,-14.09939 -5.6321,-4.97465 -16.42799,-13.90683 -23.99088,-19.84929 l -13.7507,-10.80448 -1.12647,1.18263 c -0.61955,0.65044 -3.51822,9.58263 -6.44148,19.84929 -2.92326,10.26667 -6.54996,24.96667 -8.05933,32.66667 -1.50937,7.7 -3.36772,18.5 -4.12967,24 -0.76195,5.5 -1.99053,17.73713 -2.73017,27.19362 l -1.34481,17.19362 v 23.62305 23.62305 l -9,6.73246 c -4.95,3.70285 -12.14254,9.63535 -15.98343,13.18332 l -6.98344,6.45087 3.93183,26.49142 c 2.1625,14.57029 5.46516,34.67028 7.33923,44.66667 1.87407,9.99638 5.56671,27.47524 8.20586,38.84191 2.63915,11.36666 6.83951,28.16666 9.33413,37.33333 2.49463,9.16667 9.29464,31.36667 15.11115,49.33333 5.81651,17.96667 14.5601,43.16667 19.43021,56 4.8701,12.83333 10.08659,26.63333 11.59219,30.66667 l 2.73746,7.33333 -11.01414,17.33333 c -6.05778,9.53333 -13.60064,21.26244 -16.76192,26.06468 -3.16128,4.80224 -10.56531,17.51133 -16.4534,28.24243 -5.88809,10.73111 -14.06401,26.20755 -18.16872,34.39211 -4.10471,8.18456 -10.79114,22.47546 -14.85873,31.75756 -4.06758,9.2821 -10.556,24.97655 -14.41869,34.87655 -3.86269,9.9 -10.34187,27.9 -14.39818,40 -4.05632,12.1 -9.9543,32.20645 -13.10665,44.68102 l -5.73153,22.68096 0.8333,2.1716 0.83331,2.1716 23.76508,0.8678 c 13.0708,0.4774 34.56508,1.747 47.76508,2.8214 13.2,1.0744 26.8909,2.3121 30.42422,2.7505 l 6.42423,0.797 -28.09089,27.3141 c -15.44999,15.0228 -28.09089,27.8066 -28.09089,28.4086 v 1.0945 l 9.66667,1.588 c 5.31666,0.8735 21.36666,3.9573 35.66666,6.853 14.3,2.8957 33.09164,7.0353 41.7592,9.1991 8.66756,2.1638 17.06756,3.9343 18.66667,3.9344 1.5991,2e-4 16.3593,4.5238 32.80042,10.0525 16.44113,5.5287 38.60327,13.6737 49.2492,18.1 10.64594,4.4263 28.9941,12.7023 40.77371,18.3913 11.7796,5.6889 32.40002,16.4615 45.82315,23.939 l 24.40569,13.5955 3.59431,-2.5407 c 1.97687,-1.3974 9.15407,-5.326 15.94933,-8.7302 l 12.35502,-6.1895 -2.20162,-4.3091 c -1.21089,-2.37 -5.81339,-10.6091 -10.22779,-18.3091 -4.4144,-7.7 -10.2073,-17.3 -12.87312,-21.3333 -2.66583,-4.0333 -5.4975,-8.8333 -6.29261,-10.6667 -0.79511,-1.8333 -6.56425,-9.0333 -12.82032,-16 -6.25607,-6.9666 -15.30445,-16.1313 -20.10751,-20.366 -4.80306,-4.2346 -14.01003,-11.6598 -20.45995,-16.5003 -6.44991,-4.8406 -11.91094,-8.9597 -12.13562,-9.1536 -0.22467,-0.1939 3.61604,0.491 8.53493,1.5221 4.91888,1.0311 14.35494,3.6877 20.96902,5.9036 6.61408,2.2159 16.57336,6.3977 22.13174,9.2929 l 10.10614,5.2639 8,6.9486 c 4.4,3.8217 13.64456,12.5625 20.54346,19.4241 l 12.54346,12.4755 1.10279,-1.7387 c 0.60654,-0.9563 1.11198,-2.5311 1.12321,-3.4995 0.0112,-0.9684 2.20306,-8.4684 4.87074,-16.6666 2.66767,-8.1983 7.44746,-21.0031 10.62174,-28.4552 3.17429,-7.4521 11.81363,-26.1997 19.19853,-41.6614 7.38491,-15.46162 16.15355,-35.16445 19.48587,-43.78404 l 6.05877,-15.67198 3.89238,-15.0901 3.89238,-15.09011 V 912.14098 900.4109 l -2.73992,-3.48325 -2.73992,-3.48324 -6.92674,-2.09871 -6.92675,-2.0987 -28,-1.22462 c -15.4,-0.67353 -32.71329,-1.88331 -38.47398,-2.68838 -5.76068,-0.80507 -14.87273,-2.58878 -20.24898,-3.96379 -5.37626,-1.37501 -13.86297,-4.12044 -18.85936,-6.10094 -4.99639,-1.9805 -12.33615,-5.74067 -16.31058,-8.35593 -3.97443,-2.61527 -10.71694,-7.98681 -14.98336,-11.93676 -4.26642,-3.94995 -10.44232,-10.75383 -13.72423,-15.11973 l -5.9671,-7.93801 -7.59114,-14.61036 -7.59114,-14.61037 -4.39952,-4.53004 -4.39952,-4.53004 -6.89389,-2.28978 -6.8939,-2.28979 -15.49831,-1.55497 -15.49831,-1.55498 9.52899,-5.59369 c 5.24094,-3.07653 13.04094,-7.03007 17.33333,-8.78565 4.29239,-1.75557 13.20434,-4.45597 19.80434,-6.00087 6.6,-1.5449 15.5602,-3.41824 19.91155,-4.16297 l 7.91154,-1.35405 16.08845,0.0412 16.08846,0.0412 9.76149,1.26751 c 5.36882,0.69713 15.26882,2.51741 22,4.04507 6.73118,1.52766 16.35291,4.05446 21.38162,5.61511 5.02871,1.56064 15.52871,5.93997 23.33333,9.73184 l 14.19022,6.8943 12,8.01087 12,8.01086 9.6877,8.81689 c 5.32824,4.8493 12.22824,11.68366 15.33334,15.18748 3.10509,3.50382 7.83754,9.36445 10.51655,13.02362 2.67901,3.65917 7.05371,11.00239 9.72156,16.31826 l 4.85064,9.66522 2.45733,9.66531 2.45734,9.66532 0.9012,10.66666 0.9012,10.66667 -1.40253,12 c -0.77139,6.6 -2.91366,18.21396 -4.76061,25.80881 l -3.35809,13.80881 -6.65969,17.77101 c -3.66283,9.77405 -14.38075,34.7601 -23.81761,55.5246 -9.43687,20.7644 -19.30817,43.7535 -21.93623,51.0868 -2.62806,7.3333 -5.8039,17.5333 -7.05743,22.6667 l -2.27913,9.3333 -0.0645,16.6667 -0.0645,16.6666 2.3032,8.5054 c 1.26676,4.6779 3.73302,12.0452 5.48058,16.3717 1.74755,4.3265 5.19014,11.2991 7.65019,15.4947 l 4.47281,7.6282 13.35373,13.3334 13.35374,13.3333 10.23792,5.7742 10.23792,5.7742 9.74168,3.3957 c 5.35792,1.8677 14.24168,4.1578 19.74168,5.0891 5.5,0.9314 14.2714,1.7549 19.49201,1.8301 l 9.49201,0.1367 z m -113.95581,-382.46808 0.81693,-0.81693 -5.70308,-9.9677 -5.70308,-9.96769 -6.70936,-6.74463 c -3.69015,-3.70954 -7.13199,-6.74463 -7.64854,-6.74463 -0.51654,0 -1.63934,2.78064 -2.4951,6.1792 -0.85577,3.39855 -2.78267,8.58377 -4.282,11.52271 -1.49934,2.93894 -5.52039,8.34092 -8.93569,12.0044 l -6.20961,6.66088 23.02629,-0.65434 23.0263,-0.65434 z m 391.13049,0.49134 c 0,-0.69689 -0.7588,-1.74689 -1.6861,-2.33333 -0.9273,-0.58644 -4.2157,-3.98748 -7.3074,-7.55787 l -5.6214,-6.49161 -2.955,-9.17505 c -1.6253,-5.04628 -3.3074,-9.17506 -3.7381,-9.17506 -0.4307,0 -3.8775,3.15 -7.6595,7 l -6.8763,7 -4.7448,7.92157 -4.74477,7.92156 v 2.32729 2.32729 l 4.33337,0.53777 c 2.3833,0.29576 12.5833,0.63378 22.6666,0.75114 l 18.3334,0.21338 z m -486.66669,-8.78603 c 0,-0.39589 -1.16702,-3.00733 -2.59337,-5.80321 l -2.59337,-5.08342 -1.53466,-8.8127 c -0.84407,-4.84698 -1.27732,-9.58473 -0.96279,-10.52833 l 0.57188,-1.71563 8.70181,-0.20384 8.7018,-0.20383 4.18768,-2.16554 4.18769,-2.16553 0.15797,-1.63243 c 0.0869,-0.89783 0.0365,-2.53243 -0.11192,-3.63243 -0.14845,-1.1 -1.74937,-3.56396 -3.5576,-5.47547 l -3.28768,-3.47547 -5.21205,-1.56157 -5.21206,-1.56157 -1.72463,-3.62962 -1.72464,-3.62963 -7.33036,-2.44903 -7.33037,-2.44903 -15.83078,-0.21764 -15.83078,-0.21763 -1.46221,2.28019 -1.46221,2.28019 2.39437,9.05314 c 1.3169,4.97923 4.29465,12.95314 6.61722,17.71981 l 4.22286,8.66667 8.67577,8.67537 8.67576,8.67538 9.33334,4.95263 c 5.13333,2.72395 9.78333,4.97003 10.33333,4.99129 0.55,0.0213 1,-0.28524 1,-0.68112 z m 548.44439,-4.94689 8.151,-4.33333 8.161,-7.62498 8.161,-7.62498 4.2681,-8.00795 c 2.3476,-4.40438 5.4411,-11.41707 6.8747,-15.58376 1.4335,-4.16669 2.6065,-9.24784 2.6065,-11.29146 v -3.71566 l -2.9634,-2.0756 -2.9633,-2.07561 -7.37,0.0101 c -4.0535,0.006 -11.27,0.61271 -16.0367,1.34926 -4.7666,0.73655 -11.5768,2.00629 -15.1336,2.82164 l -6.467,1.48247 0.7359,3.67969 0.736,3.6797 -5.81,1.62668 c -3.1954,0.89467 -7.7035,2.77822 -10.0178,4.18565 l -4.2079,2.55897 0.4155,4.17111 0.4156,4.1711 3.7655,2.7985 3.7656,2.79849 9.3976,-0.0767 9.3975,-0.0768 -0.7995,7.64947 -0.7995,7.64947 -2.6963,7.09394 c -1.4829,3.90167 -2.6965,7.54395 -2.6969,8.09395 -4e-4,0.55 0.6653,1 1.4794,1 0.814,0 5.1479,-1.95 9.631,-4.33334 z"
       id="path7878" /></g></svg>
